<?xml version="1.0" encoding="UTF-8" standalone="no"?>
<!DOCTYPE svg PUBLIC "-//W3C//DTD SVG 1.1//EN" "http://www.w3.org/Graphics/SVG/1.1/DTD/svg11.dtd">
<svg width="100%" height="100%" viewBox="0 0 1469 867" version="1.1" xmlns="http://www.w3.org/2000/svg" xmlns:xlink="http://www.w3.org/1999/xlink" xml:space="preserve" xmlns:serif="http://www.serif.com/" style="fill-rule:evenodd;clip-rule:evenodd;stroke-linejoin:round;stroke-miterlimit:2;">
    <g>
        <path d="M652.035,677.56L652.035,688L654.375,688L654.375,677.56L657.867,677.56L657.867,675.4L648.543,675.4L648.543,677.56L652.035,677.56ZM662.221,688L662.221,682.348L667.261,682.348L667.261,688L669.601,688L669.601,675.4L667.261,675.4L667.261,680.188L662.221,680.188L662.221,675.4L659.881,675.4L659.881,688L662.221,688ZM672.168,688L680.142,688L680.142,685.84L674.508,685.84L674.508,682.366L678.882,682.366L678.882,680.206L674.508,680.206L674.508,677.56L679.962,677.56L679.962,675.4L672.168,675.4L672.168,688ZM686.986,675.4L686.986,688L689.326,688L689.326,675.4L686.986,675.4ZM695.833,688C698.803,688 701.701,686.092 701.701,681.7C701.701,677.308 698.803,675.4 695.833,675.4L691.891,675.4L691.891,688L695.833,688ZM694.231,677.56L695.095,677.56C696.193,677.56 697.093,677.794 697.939,678.37C698.803,678.946 699.325,680.098 699.325,681.7C699.325,683.302 698.803,684.454 697.939,685.03C697.093,685.606 696.193,685.84 695.095,685.84L694.231,685.84L694.231,677.56ZM703.791,688L711.765,688L711.765,685.84L706.131,685.84L706.131,682.366L710.505,682.366L710.505,680.206L706.131,680.206L706.131,677.56L711.585,677.56L711.585,675.4L703.791,675.4L703.791,688ZM723.75,688L719.484,675.4L717.144,675.4L712.878,688L715.398,688L716.316,685.03L720.312,685.03L721.23,688L723.75,688ZM719.646,682.87L716.982,682.87L718.314,678.496L719.646,682.87ZM725.324,688L733.01,688L733.01,685.84L727.664,685.84L727.664,675.4L725.324,675.4L725.324,688ZM743.293,688C746.263,688 749.161,686.092 749.161,681.7C749.161,677.308 746.263,675.4 743.293,675.4L739.351,675.4L739.351,688L743.293,688ZM741.691,677.56L742.555,677.56C743.653,677.56 744.553,677.794 745.399,678.37C746.263,678.946 746.785,680.098 746.785,681.7C746.785,683.302 746.263,684.454 745.399,685.03C744.553,685.606 743.653,685.84 742.555,685.84L741.691,685.84L741.691,677.56ZM751.252,688L759.226,688L759.226,685.84L753.592,685.84L753.592,682.366L757.966,682.366L757.966,680.206L753.592,680.206L753.592,677.56L759.046,677.56L759.046,675.4L751.252,675.4L751.252,688ZM768.445,677.542C767.725,676.012 766.519,675.256 764.809,675.256C763.819,675.256 763.009,675.58 762.343,676.246C761.695,676.912 761.371,677.722 761.371,678.676C761.335,680.998 763.279,681.952 764.773,682.582C765.835,683.032 766.645,683.608 766.645,684.346C766.645,685.444 766.105,685.984 765.007,685.984C763.819,685.984 762.991,685.138 762.505,683.428L760.615,684.616C760.813,685.606 761.317,686.452 762.109,687.136C762.901,687.802 763.855,688.144 764.953,688.144C767.401,688.144 768.985,686.668 768.985,684.22C769.003,682.042 767.005,681.106 765.493,680.44C764.467,679.954 763.603,679.36 763.603,678.568C763.603,677.902 764.107,677.416 764.809,677.416C765.511,677.416 766.105,677.866 766.555,678.748L768.445,677.542ZM773.377,677.56L773.377,688L775.717,688L775.717,677.56L779.209,677.56L779.209,675.4L769.885,675.4L769.885,677.56L773.377,677.56ZM781.223,675.4L781.223,688L783.563,688L783.563,675.4L781.223,675.4ZM793.219,683.716L788.593,675.4L786.127,675.4L786.127,688L788.467,688L788.467,679.684L793.093,688L795.559,688L795.559,675.4L793.219,675.4L793.219,683.716ZM808.143,688L803.877,675.4L801.537,675.4L797.271,688L799.791,688L800.709,685.03L804.705,685.03L805.623,688L808.143,688ZM804.039,682.87L801.375,682.87L802.707,678.496L804.039,682.87ZM810.555,677.56L810.555,688L812.895,688L812.895,677.56L816.387,677.56L816.387,675.4L807.063,675.4L807.063,677.56L810.555,677.56ZM818.4,675.4L818.4,688L820.74,688L820.74,675.4L818.4,675.4ZM826.081,675.94C824.335,676.822 823.093,678.892 823.093,681.7C823.093,683.104 823.363,684.31 823.921,685.3C825.055,687.298 826.855,688.144 829.033,688.144C830.131,688.144 831.103,687.928 831.985,687.478C833.731,686.56 834.973,684.508 834.973,681.7C834.973,680.296 834.685,679.09 834.127,678.1C833.029,676.102 831.211,675.256 829.033,675.256C827.935,675.256 826.963,675.49 826.081,675.94ZM831.571,678.496C832.255,679.216 832.597,680.278 832.597,681.7C832.597,683.122 832.255,684.184 831.571,684.904C830.905,685.624 830.059,685.984 829.033,685.984C828.007,685.984 827.161,685.624 826.477,684.904C825.811,684.184 825.469,683.122 825.469,681.7C825.469,680.278 825.811,679.216 826.477,678.496C827.161,677.776 828.007,677.416 829.033,677.416C830.059,677.416 830.905,677.776 831.571,678.496ZM844.16,683.716L839.534,675.4L837.068,675.4L837.068,688L839.408,688L839.408,679.684L844.034,688L846.5,688L846.5,675.4L844.16,675.4L844.16,683.716ZM854.207,688L856.547,688L856.547,682.6L861.083,682.6L861.083,680.44L856.547,680.44L856.547,677.56L862.181,677.56L862.181,675.4L854.207,675.4L854.207,688ZM866.458,675.94C864.712,676.822 863.47,678.892 863.47,681.7C863.47,683.104 863.74,684.31 864.298,685.3C865.432,687.298 867.232,688.144 869.41,688.144C870.508,688.144 871.48,687.928 872.362,687.478C874.108,686.56 875.35,684.508 875.35,681.7C875.35,680.296 875.062,679.09 874.504,678.1C873.406,676.102 871.588,675.256 869.41,675.256C868.312,675.256 867.34,675.49 866.458,675.94ZM871.948,678.496C872.632,679.216 872.974,680.278 872.974,681.7C872.974,683.122 872.632,684.184 871.948,684.904C871.282,685.624 870.436,685.984 869.41,685.984C868.384,685.984 867.538,685.624 866.854,684.904C866.188,684.184 865.846,683.122 865.846,681.7C865.846,680.278 866.188,679.216 866.854,678.496C867.538,677.776 868.384,677.416 869.41,677.416C870.436,677.416 871.282,677.776 871.948,678.496ZM885.869,678.982C885.869,676.822 884.483,675.4 882.035,675.4L877.445,675.4L877.445,688L879.785,688L879.785,682.564L881.009,682.564L884.393,688L887.003,688L883.511,682.366C885.023,681.916 885.869,680.656 885.869,678.982ZM879.785,680.404L879.785,677.56L882.053,677.56C883.043,677.56 883.529,678.028 883.529,678.982C883.529,679.936 883.043,680.404 882.053,680.404L879.785,680.404ZM895.686,677.56L895.686,688L898.026,688L898.026,677.56L901.518,677.56L901.518,675.4L892.194,675.4L892.194,677.56L895.686,677.56ZM905.871,688L905.871,682.348L910.911,682.348L910.911,688L913.251,688L913.251,675.4L910.911,675.4L910.911,680.188L905.871,680.188L905.871,675.4L903.531,675.4L903.531,688L905.871,688ZM915.818,688L923.792,688L923.792,685.84L918.158,685.84L918.158,682.366L922.532,682.366L922.532,680.206L918.158,680.206L918.158,677.56L923.612,677.56L923.612,675.4L915.818,675.4L915.818,688ZM937.279,675.4L937.279,683.248C937.279,685.066 936.487,685.984 934.921,685.984C933.355,685.984 932.563,685.066 932.563,683.248L932.563,675.4L930.223,675.4L930.223,683.212C930.223,686.47 932.041,688.144 934.921,688.144C937.801,688.144 939.619,686.47 939.619,683.212L939.619,675.4L937.279,675.4ZM950.258,678.982C950.258,676.822 948.872,675.4 946.424,675.4L941.834,675.4L941.834,688L944.174,688L944.174,682.564L945.398,682.564L948.782,688L951.392,688L947.9,682.366C949.412,681.916 950.258,680.656 950.258,678.982ZM944.174,680.404L944.174,677.56L946.442,677.56C947.432,677.56 947.918,678.028 947.918,678.982C947.918,679.936 947.432,680.404 946.442,680.404L944.174,680.404ZM953.049,688L957.747,688C960.339,688 961.905,686.632 961.905,684.202C961.905,682.672 961.275,681.646 960.015,681.124C960.807,680.71 961.257,679.828 961.257,678.802C961.257,676.57 959.871,675.4 957.657,675.4L953.049,675.4L953.049,688ZM957.477,677.56C958.503,677.56 959.007,677.938 959.007,678.928C959.007,679.918 958.521,680.296 957.531,680.296L955.389,680.296L955.389,677.56L957.477,677.56ZM957.531,682.456C958.881,682.456 959.565,683.014 959.565,684.148C959.565,685.282 958.881,685.84 957.531,685.84L955.389,685.84L955.389,682.456L957.531,682.456ZM973.746,688L969.48,675.4L967.14,675.4L962.874,688L965.394,688L966.312,685.03L970.308,685.03L971.226,688L973.746,688ZM969.642,682.87L966.978,682.87L968.31,678.496L969.642,682.87ZM982.412,683.716L977.786,675.4L975.32,675.4L975.32,688L977.66,688L977.66,679.684L982.286,688L984.752,688L984.752,675.4L982.412,675.4L982.412,683.716ZM987.326,675.4L987.326,688L989.666,688L989.666,675.4L987.326,675.4ZM995.16,677.56L995.16,688L997.5,688L997.5,677.56L1000.99,677.56L1000.99,675.4L991.668,675.4L991.668,677.56L995.16,677.56ZM1003.01,688L1010.98,688L1010.98,685.84L1005.35,685.84L1005.35,682.366L1009.72,682.366L1009.72,680.206L1005.35,680.206L1005.35,677.56L1010.8,677.56L1010.8,675.4L1003.01,675.4L1003.01,688Z" style="fill:white;fill-rule:nonzero;"/>
        <path d="M721.401,249.761L763.929,249.761L763.929,238.241L733.881,238.241L733.881,219.713L757.209,219.713L757.209,208.193L733.881,208.193L733.881,194.081L762.969,194.081L762.969,182.561L721.401,182.561L721.401,249.761ZM827.85,249.761L805.098,182.561L792.618,182.561L769.866,249.761L783.306,249.761L788.202,233.921L809.514,233.921L814.41,249.761L827.85,249.761ZM805.962,222.401L791.754,222.401L798.858,199.073L805.962,222.401ZM874.975,193.985C871.135,185.825 864.703,181.793 855.583,181.793C850.303,181.793 845.983,183.521 842.431,187.073C838.975,190.625 837.247,194.945 837.247,200.033C837.055,212.417 847.423,217.505 855.391,220.865C861.055,223.265 865.375,226.337 865.375,230.273C865.375,236.129 862.495,239.009 856.639,239.009C850.303,239.009 845.887,234.497 843.295,225.377L833.215,231.713C834.271,236.993 836.959,241.505 841.183,245.153C845.407,248.705 850.495,250.529 856.351,250.529C869.407,250.529 877.855,242.657 877.855,229.601C877.951,217.985 867.295,212.993 859.231,209.441C853.759,206.849 849.151,203.681 849.151,199.457C849.151,195.905 851.839,193.313 855.583,193.313C859.327,193.313 862.495,195.713 864.895,200.417L874.975,193.985ZM901.278,194.081L901.278,249.761L913.758,249.761L913.758,194.081L932.382,194.081L932.382,182.561L882.654,182.561L882.654,194.081L901.278,194.081Z" style="fill:white;fill-rule:nonzero;"/>
        <path d="M790.507,360.815L803.947,360.815L803.947,295.535L790.507,295.535L790.507,360.815ZM836.598,361.679C849.366,361.679 858.87,355.055 858.87,342.959C858.87,331.727 852.438,326.735 841.014,321.839L837.654,320.399C831.894,317.903 829.398,316.271 829.398,312.239C829.398,308.975 831.894,306.479 835.83,306.479C839.67,306.479 842.166,308.111 844.47,312.239L854.934,305.519C850.518,297.743 844.374,294.767 835.83,294.767C823.83,294.767 816.15,302.447 816.15,312.527C816.15,323.471 822.582,328.655 832.278,332.783L835.638,334.223C841.782,336.911 845.43,338.543 845.43,343.151C845.43,346.991 841.878,349.775 836.31,349.775C829.686,349.775 825.942,346.319 823.062,341.615L812.118,347.951C816.054,355.727 824.118,361.679 836.598,361.679Z" style="fill:white;fill-rule:nonzero;"/>
        <path d="M450.184,527L583.816,527L583.816,491.576L490.504,491.576L490.504,463.352L569.128,463.352L569.128,428.792L490.504,428.792L490.504,366.584L579.784,366.584L579.784,331.16L450.184,331.16L450.184,527Z" style="fill:white;fill-rule:nonzero;"/>
        <path d="M678.867,604.449L719.187,604.449L719.187,559.809L733.011,559.809C787.443,559.809 820.563,531.585 820.563,484.353C820.563,437.121 787.731,408.609 733.011,408.609L678.867,408.609L678.867,604.449ZM719.187,524.385L719.187,444.033L731.859,444.033C764.115,444.033 779.091,457.281 779.091,484.353C779.091,511.137 764.691,524.385 731.859,524.385L719.187,524.385Z" style="fill:white;fill-rule:nonzero;"/>
        <rect x="907.804" y="350.026" width="40.32" height="195.84" style="fill:white;fill-rule:nonzero;"/>
        <path d="M1109.89,573.281C1147.62,573.281 1174.69,556.577 1191.68,530.081L1160.29,508.481C1149.35,525.185 1135.24,537.281 1109.89,537.281C1074.47,537.281 1050.56,509.345 1050.56,472.769C1050.56,436.193 1074.47,408.833 1109.89,408.833C1132.36,408.833 1148.2,419.489 1157.41,434.465L1188.23,412.577C1170.66,385.217 1145.32,372.545 1109.89,372.545C1053.73,372.545 1009.09,414.881 1009.09,472.769C1009.09,530.657 1053.73,573.281 1109.89,573.281Z" style="fill:white;fill-rule:nonzero;"/>
        <g id="Layer1">
        </g>
    </g>
</svg>
